<?xml version="1.0" encoding="UTF-8"?>
<svg width="339px" height="59px" viewBox="0 0 339 59" version="1.1" xmlns="http://www.w3.org/2000/svg" xmlns:xlink="http://www.w3.org/1999/xlink">
    <title>oasis-logo-white</title>
    <g id="oasis-logo-white" stroke="none" stroke-width="1" fill="none" fill-rule="evenodd">
        <g id="Group" transform="translate(11.000000, 11.000000)" fill="#FFFFFF">
            <path d="M0,19 C0,24.0744681 3.53343721,28 8.46224453,28 C13.3910518,28 16.946995,24.0744681 16.946995,19 C16.946995,13.9255319 13.3910518,10 8.46224453,10 C3.53343721,10 0,13.9255319 0,19 Z M3.21835364,19 C3.21835364,15.8164894 5.40143268,13.375 8.46224453,13.375 C11.5455623,13.375 13.7061354,15.8164894 13.7061354,19 C13.7061354,22.1835106 11.5455623,24.625 8.46224453,24.625 C5.40143268,24.625 3.21835364,22.1835106 3.21835364,19 Z M31.4077583,27.7367021 L34.6711239,27.7367021 L29.3147031,10.2632979 L26.0063256,10.2632979 L20.604893,27.7367021 L23.8007406,27.7367021 L24.5659436,25.2473404 L30.6425553,25.2473404 L31.4077583,27.7367021 Z M25.5787122,21.9441489 L27.6042495,15.3138298 L29.6297867,21.9441489 L25.5787122,21.9441489 Z M47.5789753,15.3617021 L50.7973289,15.3617021 C50.7973289,12.1781915 48.2991663,10 44.9232709,10 C41.4798575,10 39.0942248,12.3218085 39.0942248,15.5053191 C39.0942248,17.731383 40.2645352,19.4787234 42.4251083,20.125 C43.8554877,20.5462766 45.5440689,20.4412175 46.6072279,20.8167258 L46.6787365,20.8430851 C47.3314096,21.0824468 47.8490469,21.6329787 47.8490469,22.4946809 C47.8490469,23.7632979 46.8362783,24.7446809 45.1033186,24.7446809 C43.4153709,24.7446809 42.1550366,23.8111702 42.1550366,22.4228723 L38.959189,22.4228723 C38.959189,25.7260638 41.5698814,28 45.0583067,28 C48.6592618,28 51.0448946,25.606383 51.0448946,22.3031915 C51.0448946,19.9574468 49.7620543,18.2579787 47.6689992,17.587766 C46.0935813,17.0851064 44.4956575,17.3005319 43.4378769,16.893617 C42.7401918,16.6303191 42.2900724,16.0797872 42.2900724,15.337766 C42.2900724,14.1648936 43.2803351,13.2553191 44.8782589,13.2553191 C46.4536768,13.2553191 47.5339633,14.0930851 47.5789753,15.3617021 Z M56.7058238,27.7367021 L59.9241774,27.7367021 L59.9241774,10.2632979 L56.7058238,10.2632979 L56.7058238,27.7367021 Z M74.2724109,15.3617021 L77.4907645,15.3617021 C77.4907645,12.1781915 74.9926019,10 71.6167065,10 C68.1732931,10 65.7876604,12.3218085 65.7876604,15.5053191 C65.7876604,17.731383 66.9579708,19.4787234 69.1185439,20.125 C70.5489232,20.5462766 72.2375045,20.4412175 73.3006635,20.8167258 L73.3721721,20.8430851 C74.0248452,21.0824468 74.5424825,21.6329787 74.5424825,22.4946809 C74.5424825,23.7632979 73.5297139,24.7446809 71.7967542,24.7446809 C70.1088065,24.7446809 68.8484722,23.8111702 68.8484722,22.4228723 L65.6526245,22.4228723 C65.6526245,25.7260638 68.263317,28 71.7517423,28 C75.3526974,28 77.7383302,25.606383 77.7383302,22.3031915 C77.7383302,19.9574468 76.4554899,18.2579787 74.3624347,17.587766 C72.7870169,17.0851064 71.189093,17.3005319 70.1313125,16.893617 C69.4336274,16.6303191 68.983508,16.0797872 68.983508,15.337766 C68.983508,14.1648936 69.9737707,13.2553191 71.5716945,13.2553191 C73.1471124,13.2553191 74.2273989,14.0930851 74.2724109,15.3617021 Z M92.8862034,27.7367021 L96.104557,27.7367021 L96.104557,20.6276596 L101.39346,20.6276596 L101.39346,17.2765957 L96.104557,17.2765957 L96.104557,13.6143617 L105.647088,13.6143617 L105.647088,10.2632979 L92.8862034,10.2632979 L92.8862034,27.7367021 Z M109.755105,19 C109.755105,24.0744681 113.288543,28 118.21735,28 C123.146157,28 126.7021,24.0744681 126.7021,19 C126.7021,13.9255319 123.146157,10 118.21735,10 C113.288543,10 109.755105,13.9255319 109.755105,19 Z M112.973459,19 C112.973459,15.8164894 115.156538,13.375 118.21735,13.375 C121.300668,13.375 123.461241,15.8164894 123.461241,19 C123.461241,22.1835106 121.300668,24.625 118.21735,24.625 C115.156538,24.625 112.973459,22.1835106 112.973459,19 Z M145.461504,10.2632979 L142.265656,10.2632979 L142.265656,21.0106383 C142.265656,23.0452128 140.870286,24.625 138.912267,24.625 C136.931741,24.625 135.536371,23.0452128 135.536371,21.0106383 L135.536371,10.2632979 L132.318018,10.2632979 L132.318018,21.1542553 C132.318018,25.0079787 135.063746,28 138.912267,28 C142.625752,28 145.461504,25.0797872 145.461504,21.1542553 L145.461504,10.2632979 Z M161.857781,10.2632979 L161.857781,21.6808511 L154.99346,10.2632979 L151.797612,10.2632979 L151.797612,27.7367021 L154.99346,27.7367021 L154.99346,16.3191489 L161.857781,27.7367021 L165.053628,27.7367021 L165.053628,10.2632979 L161.857781,10.2632979 Z M176.993723,10.2632979 L171.502266,10.2632979 L171.502266,27.7367021 L176.993723,27.7367021 C181.764988,27.7367021 185.208402,23.9787234 185.208402,19.0239362 C185.208402,14.0691489 181.764988,10.2632979 176.993723,10.2632979 Z M174.72062,13.6143617 L176.971217,13.6143617 C179.896993,13.6143617 181.990048,15.9601064 181.990048,19.0239362 C181.990048,22.087766 179.896993,24.3856383 176.971217,24.3856383 L174.72062,24.3856383 L174.72062,13.6143617 Z M199.669165,27.7367021 L202.932531,27.7367021 L197.57611,10.2632979 L194.267732,10.2632979 L188.8663,27.7367021 L192.062147,27.7367021 L192.82735,25.2473404 L198.903962,25.2473404 L199.669165,27.7367021 Z M193.840119,21.9441489 L195.865656,15.3138298 L197.891193,21.9441489 L193.840119,21.9441489 Z M209.831288,27.7367021 L213.049642,27.7367021 L213.049642,13.6143617 L217.820907,13.6143617 L217.820907,10.2632979 L205.060023,10.2632979 L205.060023,13.6143617 L209.831288,13.6143617 L209.831288,27.7367021 Z M223.121741,27.7367021 L226.340095,27.7367021 L226.340095,10.2632979 L223.121741,10.2632979 L223.121741,27.7367021 Z M232.068542,19 C232.068542,24.0744681 235.601979,28 240.530786,28 C245.459594,28 249.015537,24.0744681 249.015537,19 C249.015537,13.9255319 245.459594,10 240.530786,10 C235.601979,10 232.068542,13.9255319 232.068542,19 Z M235.286895,19 C235.286895,15.8164894 237.469975,13.375 240.530786,13.375 C243.614104,13.375 245.774677,15.8164894 245.774677,19 C245.774677,22.1835106 243.614104,24.625 240.530786,24.625 C237.469975,24.625 235.286895,22.1835106 235.286895,19 Z M264.804152,10.2632979 L268,10.2632979 L268,27.7367021 L264.804152,27.7367021 L257.939832,16.3191489 L257.939832,27.7367021 L254.743984,27.7367021 L254.743984,10.2632979 L257.939832,10.2632979 L264.804152,21.6808511 L264.804152,10.2632979 Z" id="OASISFOUNDATION" fill-rule="nonzero"></path>
            <path d="M314.14453,7.52663889 C311.268101,3.84644444 307.04582,1.51736111 302.376505,1.51736111 C293.346102,1.51736111 286.739288,9.90902778 286.739288,19 C286.739288,25.3375556 290.945208,30.0801667 295.624023,30.0801667 C296.061029,30.0801667 296.494868,30.0405833 296.922374,29.9619444 C293.788914,27.6766667 291.783858,23.5140833 291.783858,19 C291.783858,11.8121944 296.646342,6.21088889 302.376505,6.21088889 C308.626009,6.21088889 312.971791,12.4170278 312.971791,19 C312.95543,23.8618889 311.222184,28.6958056 308.172114,32.2625278 C305.509965,35.3758889 302.061945,37.3503056 298.270865,37.9767778 C298.270865,37.9767778 298.587008,38 299.000264,38 C309.493687,38 318,29.4932778 318,19 C318,14.6891111 316.563369,10.7144167 314.14453,7.52663889 Z M311.260712,19 C311.260712,12.6619167 307.054792,7.91930556 302.376505,7.91930556 C301.938971,7.91930556 301.50566,7.95888889 301.077626,8.03805556 C304.211614,10.3233333 306.216142,14.4859167 306.216142,19 C306.216142,26.1878056 301.354185,31.7891111 295.624023,31.7891111 C289.373991,31.7891111 285.028737,25.5829722 285.028737,19 C285.04457,14.1381111 286.778344,9.30419444 289.827886,5.73747222 C292.490562,2.62411111 295.938582,0.649694444 299.729135,0.0232222222 C299.729135,0.0232222222 299.41352,0 299.000264,0 C288.50684,0 280,8.50672222 280,19 C280,23.3103611 281.436631,27.2850556 283.855998,30.4738889 C286.731899,34.1530278 290.954708,36.4826389 295.624023,36.4826389 C304.654426,36.4826389 311.260712,28.0909722 311.260712,19 L311.260712,19 Z" id="Fill-1"></path>
        </g>
    </g>
</svg>