<svg width="239" height="24" viewBox="0 0 239 24" fill="none" xmlns="http://www.w3.org/2000/svg">
<path d="M36.81 11.43C36.81 15.246 39.636 18.198 43.578 18.198C47.52 18.198 50.364 15.246 50.364 11.43C50.364 7.614 47.52 4.662 43.578 4.662C39.636 4.662 36.81 7.614 36.81 11.43ZM39.384 11.43C39.384 9.036 41.13 7.2 43.578 7.2C46.044 7.2 47.772 9.036 47.772 11.43C47.772 13.824 46.044 15.66 43.578 15.66C41.13 15.66 39.384 13.824 39.384 11.43ZM60.9742 18H63.5842L59.3002 4.86H56.6542L52.3342 18H54.8902L55.5022 16.128H60.3622L60.9742 18ZM56.3122 13.644L57.9322 8.658L59.5522 13.644H56.3122ZM72.9688 8.694H75.5428C75.5428 6.3 73.5448 4.662 70.8448 4.662C68.0908 4.662 66.1828 6.408 66.1828 8.802C66.1828 10.476 67.1188 11.79 68.8468 12.276C70.0168 12.6 71.4028 12.51 72.2488 12.816C72.7708 12.996 73.1848 13.41 73.1848 14.058C73.1848 15.012 72.3748 15.75 70.9888 15.75C69.6388 15.75 68.6308 15.048 68.6308 14.004H66.0748C66.0748 16.488 68.1628 18.198 70.9528 18.198C73.8328 18.198 75.7408 16.398 75.7408 13.914C75.7408 12.15 74.7148 10.872 73.0408 10.368C71.7808 9.99 70.5028 10.152 69.6568 9.846C69.0988 9.648 68.7388 9.234 68.7388 8.676C68.7388 7.794 69.5308 7.11 70.8088 7.11C72.0688 7.11 72.9328 7.74 72.9688 8.694ZM79.3232 18H81.8972V4.86H79.3232V18ZM92.4249 8.694H94.9989C94.9989 6.3 93.0009 4.662 90.3009 4.662C87.5469 4.662 85.6389 6.408 85.6389 8.802C85.6389 10.476 86.5749 11.79 88.3029 12.276C89.4729 12.6 90.8589 12.51 91.7049 12.816C92.2269 12.996 92.6409 13.41 92.6409 14.058C92.6409 15.012 91.8309 15.75 90.4449 15.75C89.0949 15.75 88.0869 15.048 88.0869 14.004H85.5309C85.5309 16.488 87.6189 18.198 90.4089 18.198C93.2889 18.198 95.1969 16.398 95.1969 13.914C95.1969 12.15 94.1709 10.872 92.4969 10.368C91.2369 9.99 89.9589 10.152 89.1129 9.846C88.5549 9.648 88.1949 9.234 88.1949 8.676C88.1949 7.794 88.9869 7.11 90.2649 7.11C91.5249 7.11 92.3889 7.74 92.4249 8.694ZM105.422 18H107.996V12.654H112.226V10.134H107.996V7.38H115.628V4.86H105.422V18ZM117.958 11.43C117.958 15.246 120.784 18.198 124.726 18.198C128.668 18.198 131.512 15.246 131.512 11.43C131.512 7.614 128.668 4.662 124.726 4.662C120.784 4.662 117.958 7.614 117.958 11.43ZM120.532 11.43C120.532 9.036 122.278 7.2 124.726 7.2C127.192 7.2 128.92 9.036 128.92 11.43C128.92 13.824 127.192 15.66 124.726 15.66C122.278 15.66 120.532 13.824 120.532 11.43ZM145.566 4.86H143.01V12.942C143.01 14.472 141.894 15.66 140.328 15.66C138.744 15.66 137.628 14.472 137.628 12.942V4.86H135.054V13.05C135.054 15.948 137.25 18.198 140.328 18.198C143.298 18.198 145.566 16.002 145.566 13.05V4.86ZM157.726 4.86V13.446L152.236 4.86H149.68V18H152.236V9.414L157.726 18H160.282V4.86H157.726ZM168.889 4.86H164.497V18H168.889C172.705 18 175.459 15.174 175.459 11.448C175.459 7.722 172.705 4.86 168.889 4.86ZM167.071 7.38H168.871C171.211 7.38 172.885 9.144 172.885 11.448C172.885 13.752 171.211 15.48 168.871 15.48H167.071V7.38ZM186.081 18H188.691L184.407 4.86H181.761L177.441 18H179.997L180.609 16.128H185.469L186.081 18ZM181.419 13.644L183.039 8.658L184.659 13.644H181.419ZM193.267 18H195.841V7.38H199.657V4.86H189.451V7.38H193.267V18ZM202.954 18H205.528V4.86H202.954V18ZM209.161 11.43C209.161 15.246 211.987 18.198 215.929 18.198C219.871 18.198 222.715 15.246 222.715 11.43C222.715 7.614 219.871 4.662 215.929 4.662C211.987 4.662 209.161 7.614 209.161 11.43ZM211.735 11.43C211.735 9.036 213.481 7.2 215.929 7.2C218.395 7.2 220.123 9.036 220.123 11.43C220.123 13.824 218.395 15.66 215.929 15.66C213.481 15.66 211.735 13.824 211.735 11.43ZM234.393 4.86V13.446L228.903 4.86H226.347V18H228.903V9.414L234.393 18H236.949V4.86H234.393Z" fill="white"/>
<path fill-rule="evenodd" clip-rule="evenodd" d="M21.565 4.75358C19.7483 2.42922 17.0816 0.958206 14.1326 0.958206C8.42918 0.958206 4.25647 6.25826 4.25647 12C4.25647 16.0027 6.91283 18.9981 9.86786 18.9981C10.1439 18.9981 10.4179 18.9731 10.6879 18.9234C8.70885 17.48 7.4425 14.851 7.4425 12C7.4425 7.46027 10.5135 3.92257 14.1326 3.92257C18.0796 3.92257 20.8243 7.84227 20.8243 12C20.814 15.0707 19.7193 18.1237 17.7929 20.3764C16.1116 22.3428 13.9339 23.5898 11.5395 23.9854C11.5395 23.9854 11.7392 24.0001 12.0002 24.0001C18.6276 24.0001 24 18.6274 24 12C24 9.27729 23.0927 6.76693 21.565 4.75358ZM19.7435 12.0001C19.7435 7.99708 17.0872 5.00172 14.1325 5.00172C13.8561 5.00172 13.5825 5.02672 13.3121 5.07672C15.2915 6.52006 16.5575 9.14909 16.5575 12.0001C16.5575 16.5398 13.4868 20.0775 9.86776 20.0775C5.92039 20.0775 3.17603 16.1578 3.17603 12.0001C3.18603 8.92942 4.28104 5.87639 6.20706 3.6237C7.88874 1.65735 10.0664 0.410337 12.4605 0.0146668C12.4605 0.0146668 12.2611 0 12.0001 0C5.37272 0 0 5.37272 0 12.0001C0 14.7225 0.907342 17.2328 2.43536 19.2469C4.25171 21.5705 6.91873 23.0419 9.86776 23.0419C15.5712 23.0419 19.7435 17.7418 19.7435 12.0001Z" fill="white"/>
</svg>
