<?xml version="1.0" standalone="no"?>
<!DOCTYPE svg PUBLIC "-//W3C//DTD SVG 20010904//EN"
 "http://www.w3.org/TR/2001/REC-SVG-20010904/DTD/svg10.dtd">
<svg version="1.0" xmlns="http://www.w3.org/2000/svg"
 width="1200.000000pt" height="1200.000000pt" viewBox="0 0 1200.000000 1200.000000"
 preserveAspectRatio="xMidYMid meet">
<metadata>
Created by potrace 1.14, written by Peter Selinger 2001-2017
</metadata>
<g transform="translate(0.000000,1200.000000) scale(0.100000,-0.100000)"
fill="#000000" stroke="none">
<path d="M5728 11984 c-2 -1 -52 -5 -113 -9 -152 -10 -173 -11 -230 -19 -27
-3 -75 -8 -105 -11 -30 -3 -64 -8 -75 -10 -11 -2 -40 -7 -65 -10 -25 -3 -56
-7 -70 -9 -14 -3 -54 -10 -90 -16 -140 -24 -422 -86 -530 -117 -259 -74 -573
-180 -705 -238 -16 -7 -58 -25 -93 -39 -128 -54 -373 -172 -512 -248 -151 -83
-495 -295 -565 -350 -5 -4 -75 -56 -155 -114 -80 -59 -147 -110 -150 -113 -3
-3 -27 -24 -55 -46 -27 -21 -52 -42 -55 -45 -3 -3 -34 -30 -70 -60 -116 -99
-173 -152 -335 -315 -175 -175 -216 -219 -326 -352 -41 -48 -76 -90 -79 -93
-66 -62 -500 -683 -500 -716 0 -4 -6 -15 -14 -23 -7 -9 -28 -43 -46 -76 -18
-33 -56 -103 -85 -156 -146 -266 -305 -640 -413 -969 -64 -196 -157 -553 -177
-684 -4 -21 -9 -48 -11 -60 -3 -11 -12 -61 -20 -111 -8 -49 -16 -100 -19 -111
-2 -12 -7 -48 -10 -80 -4 -33 -9 -68 -11 -79 -2 -11 -7 -51 -10 -90 -3 -38 -7
-81 -10 -95 -25 -156 -25 -877 1 -1100 2 -19 6 -57 9 -85 8 -64 18 -148 31
-250 53 -405 240 -1073 399 -1430 8 -16 28 -64 46 -105 35 -81 191 -397 233
-470 14 -25 35 -63 47 -85 91 -167 353 -559 462 -690 182 -221 262 -309 414
-460 494 -491 1051 -856 1684 -1105 237 -93 631 -202 845 -234 43 -7 83 -13
130 -21 17 -3 57 -7 90 -10 33 -3 67 -8 75 -10 92 -26 695 -26 925 -1 114 12
157 18 205 26 30 5 73 12 95 15 22 4 54 9 70 11 53 9 339 76 365 86 14 5 36
12 49 14 79 15 440 147 591 216 99 45 307 151 380 193 36 21 81 46 100 57 186
106 540 366 745 547 55 49 382 377 425 426 19 22 51 58 70 81 19 22 51 59 70
84 19 24 40 48 45 54 35 36 252 338 315 436 5 8 22 33 36 55 15 22 55 87 89
145 305 517 518 1033 665 1620 18 69 34 136 36 150 2 14 9 45 14 70 6 25 13
56 15 70 3 14 7 36 10 50 11 50 15 77 35 215 26 176 27 185 35 270 4 39 8 81
10 95 26 171 25 860 0 985 -3 11 -7 45 -10 75 -3 30 -9 80 -15 110 -5 30 -12
72 -15 94 -60 412 -263 972 -485 1335 -95 157 -246 370 -311 442 -13 14 -45
50 -70 80 -55 64 -209 216 -294 289 -307 266 -698 471 -1065 559 -94 22 -115
26 -245 45 -117 18 -336 23 -465 12 -103 -10 -220 -28 -220 -35 0 -3 15 -16
33 -27 108 -72 399 -344 528 -494 35 -41 66 -77 69 -80 41 -38 259 -347 337
-475 147 -244 269 -500 366 -765 44 -123 87 -249 91 -273 2 -7 8 -30 14 -52 6
-22 12 -44 13 -50 1 -5 5 -20 10 -33 5 -12 11 -33 13 -45 2 -12 11 -49 19 -82
17 -66 56 -260 63 -315 2 -19 6 -46 9 -60 7 -38 13 -79 20 -150 4 -36 9 -74
11 -85 26 -134 25 -775 -1 -975 -3 -19 -7 -60 -10 -90 -4 -30 -8 -66 -10 -80
-7 -49 -17 -115 -21 -135 -2 -11 -6 -33 -9 -50 -12 -69 -17 -93 -31 -160 -47
-215 -141 -541 -184 -640 -5 -11 -26 -63 -46 -115 -54 -140 -200 -436 -289
-585 -69 -115 -170 -271 -185 -285 -3 -3 -30 -39 -60 -80 -118 -161 -329 -392
-500 -546 -144 -129 -414 -322 -585 -416 -441 -244 -917 -370 -1403 -371 -111
0 -252 7 -332 18 -14 1 -49 6 -79 10 -30 4 -63 9 -75 11 -12 2 -36 7 -54 10
-271 45 -684 201 -932 352 -172 104 -314 206 -442 315 -28 23 -60 50 -72 60
-86 74 -272 268 -371 387 -546 660 -892 1521 -980 2440 -24 247 -24 665 0 950
10 121 18 199 31 300 22 163 23 175 41 275 8 50 17 104 20 120 2 17 13 68 23
115 10 47 21 96 24 110 2 14 16 72 31 130 14 58 28 115 30 127 33 151 215 688
295 868 10 22 39 90 65 150 68 158 216 448 301 592 11 17 37 61 59 99 22 37
47 79 55 93 19 32 145 219 189 281 17 25 39 56 49 70 9 14 19 27 22 30 3 3 25
32 49 65 190 258 548 642 791 850 58 50 111 96 118 102 7 7 41 34 75 60 34 27
69 54 77 61 32 29 201 149 335 237 537 355 1174 617 1790 735 66 13 124 27
129 31 5 5 -102 8 -237 7 -136 -1 -248 -2 -249 -4z"/>
<path d="M6778 11545 c-2 -2 -37 -6 -78 -9 -345 -27 -651 -86 -994 -190 -65
-20 -146 -48 -179 -61 -33 -14 -64 -25 -68 -25 -28 0 -470 -203 -561 -258 -18
-11 -58 -33 -88 -49 -64 -35 -213 -124 -220 -132 -3 -3 -39 -28 -80 -55 -114
-74 -375 -271 -420 -316 -3 -3 -39 -34 -80 -69 -118 -101 -415 -404 -531 -541
-580 -686 -983 -1479 -1210 -2385 -34 -133 -75 -329 -85 -402 -3 -27 -8 -51
-10 -55 -4 -6 -8 -35 -38 -268 -46 -358 -56 -899 -21 -1170 2 -14 6 -52 10
-85 11 -101 33 -230 61 -360 20 -92 20 -93 34 -145 7 -25 14 -53 16 -63 4 -21
47 -166 79 -262 91 -277 272 -641 444 -890 133 -194 212 -287 395 -470 455
-454 981 -713 1561 -769 108 -11 358 -6 465 8 25 4 64 9 88 12 23 4 42 9 42
13 0 3 -17 17 -37 31 -20 14 -41 30 -47 35 -6 6 -36 30 -66 55 -102 83 -114
95 -245 225 -182 181 -326 356 -475 578 -209 314 -398 705 -518 1077 -65 200
-146 530 -167 680 -2 14 -6 42 -9 63 -11 70 -16 107 -21 159 -3 29 -8 62 -10
73 -25 129 -26 878 0 975 2 8 6 48 10 89 3 41 8 77 10 80 2 4 6 31 9 61 3 30
8 65 10 77 3 11 8 43 12 70 5 26 9 50 9 53 11 47 26 120 29 135 2 11 16 67 31
125 15 58 28 112 30 120 11 46 89 290 104 325 5 11 28 68 51 127 56 145 55
141 142 318 147 296 283 510 487 765 85 105 125 149 266 290 369 370 786 630
1256 786 80 26 157 50 170 53 172 37 269 56 312 62 29 4 63 8 77 10 114 16
365 21 523 10 142 -10 327 -36 412 -58 22 -5 48 -12 59 -14 38 -7 263 -72 291
-85 11 -4 72 -29 135 -54 109 -44 276 -127 383 -191 27 -16 56 -33 65 -39 59
-35 181 -122 272 -193 515 -406 934 -983 1201 -1653 35 -88 116 -315 124 -349
2 -8 20 -71 40 -140 32 -114 78 -313 91 -398 3 -19 8 -44 10 -56 2 -11 7 -37
10 -56 3 -19 9 -59 14 -88 5 -29 9 -56 8 -60 -1 -7 12 -133 17 -163 24 -128
23 -713 0 -949 -2 -19 -6 -66 -9 -105 -7 -83 -13 -125 -32 -265 -8 -58 -17
-123 -20 -145 -21 -157 -108 -558 -155 -719 -12 -38 -22 -76 -24 -85 -12 -56
-109 -348 -168 -506 -190 -505 -413 -932 -734 -1405 -246 -362 -689 -851
-1003 -1106 -19 -16 -37 -31 -40 -35 -3 -3 -48 -39 -100 -80 -482 -380 -1005
-666 -1560 -852 -199 -67 -508 -151 -596 -163 -20 -2 -39 -6 -43 -8 -3 -3 -27
-7 -51 -11 -25 -4 -50 -8 -57 -9 -7 -1 -15 -5 -19 -9 -7 -7 524 -1 621 7 33 3
89 8 125 11 113 10 224 22 270 30 14 2 45 7 70 10 25 3 56 8 70 10 14 3 41 7
60 10 627 97 1353 355 1950 693 181 102 541 333 580 372 3 3 57 44 120 92 308
232 652 558 941 894 109 126 298 378 418 557 54 80 221 354 221 363 0 2 11 21
23 42 31 48 152 284 199 387 75 164 90 198 144 338 116 298 214 621 280 922 9
42 55 292 60 325 2 19 6 44 9 55 2 11 7 43 10 71 3 28 7 59 9 70 2 10 7 60 11
109 4 50 9 99 11 110 26 135 25 842 -1 1075 -2 19 -6 60 -9 90 -9 76 -26 220
-31 250 -23 155 -48 280 -100 521 -41 190 -197 676 -270 844 -7 17 -34 79 -60
139 -173 403 -421 832 -682 1181 -287 383 -638 735 -1021 1023 -110 83 -333
234 -412 280 -201 115 -275 155 -397 214 -78 37 -144 68 -147 68 -3 0 -29 11
-58 24 -204 91 -644 230 -828 261 -19 3 -42 8 -50 10 -8 2 -31 7 -50 10 -19 3
-42 8 -50 10 -8 2 -37 6 -65 10 -27 3 -61 8 -75 10 -27 5 -78 12 -155 20 -27
3 -70 8 -95 11 -48 6 -636 14 -642 9z"/>
</g>
</svg>
